<svg width="800" height="800" viewBox="0 0 800 800" fill="none" xmlns="http://www.w3.org/2000/svg">
<path d="M296 555L240 611C324.8 684.6 435.333 672.333 480 657C676.8 583.4 680.667 417 658 343L758 373C777.2 547.4 670 660.333 614 695C433.2 826.2 244 739 172 679L110 741L40 481L296 555Z" fill="#28C22E"/>
<path d="M504.272 245.436L560.272 189.436C475.472 115.836 364.939 128.103 320.272 143.436C123.472 217.036 119.605 383.436 142.272 457.436L42.2721 427.436C23.0721 253.036 130.272 140.103 186.272 105.436C367.072 -25.7635 556.272 61.4365 628.272 121.436L690.272 59.4365L760.272 319.436L504.272 245.436Z" fill="#28C22E"/>
<path d="M243.566 526V266.8H295.726C313.006 266.8 327.3 269.147 338.606 273.84C349.913 278.32 358.233 285.68 363.566 295.92C369.113 305.947 371.886 319.173 371.886 335.6C371.886 345.627 370.82 354.8 368.686 363.12C366.553 371.227 363.14 378.16 358.446 383.92C353.753 389.467 347.566 393.52 339.886 396.08L376.686 526H341.806L307.886 404.4H279.726V526H243.566ZM279.726 378.48H293.486C303.726 378.48 312.046 377.2 318.446 374.64C324.846 372.08 329.54 367.707 332.526 361.52C335.513 355.333 337.006 346.693 337.006 335.6C337.006 320.453 334.233 309.573 328.686 302.96C323.14 296.133 312.153 292.72 295.726 292.72H279.726V378.48ZM487.264 529.2C471.05 529.2 458.037 525.787 448.224 518.96C438.624 511.92 431.584 501.787 427.104 488.56C422.837 475.333 420.704 459.44 420.704 440.88V354.16C420.704 335.173 422.624 319.067 426.464 305.84C430.517 292.4 437.557 282.16 447.584 275.12C457.824 268.08 472.01 264.56 490.144 264.56C506.357 264.56 519.37 267.333 529.184 272.88C539.21 278.213 546.464 286.533 550.944 297.84C555.424 308.933 557.664 323.013 557.664 340.08V349.68H523.744V341.68C523.744 330.373 522.997 321.2 521.504 314.16C520.01 306.907 516.917 301.573 512.224 298.16C507.744 294.533 500.597 292.72 490.784 292.72C480.117 292.72 472.33 295.173 467.424 300.08C462.73 304.987 459.744 311.707 458.464 320.24C457.397 328.56 456.864 338.053 456.864 348.72V444.72C456.864 457.093 457.717 467.44 459.424 475.76C461.344 484.08 464.864 490.267 469.984 494.32C475.104 498.373 482.357 500.4 491.744 500.4C501.13 500.4 508.384 498.16 513.504 493.68C518.624 489.2 522.144 482.587 524.064 473.84C525.984 465.093 526.944 454.213 526.944 441.2V423.28H493.984V397.68H559.584V526H536.864L533.344 496.24C529.93 505.84 524.597 513.733 517.344 519.92C510.09 526.107 500.064 529.2 487.264 529.2Z" fill="black"/>
<path d="M243.566 526H233.566V536H243.566V526ZM243.566 266.8V256.8H233.566V266.8H243.566ZM338.606 273.84L334.772 283.076L334.847 283.107L334.923 283.137L338.606 273.84ZM363.566 295.92L354.697 300.539L354.755 300.651L354.816 300.761L363.566 295.92ZM368.686 363.12L378.357 365.665L378.365 365.634L378.373 365.604L368.686 363.12ZM358.446 383.92L366.08 390.379L366.14 390.309L366.199 390.237L358.446 383.92ZM339.886 396.08L336.724 386.593L327.661 389.614L330.265 398.805L339.886 396.08ZM376.686 526V536H389.912L386.308 523.275L376.686 526ZM341.806 526L332.174 528.687L334.214 536H341.806V526ZM307.886 404.4L317.519 401.713L315.479 394.4H307.886V404.4ZM279.726 404.4V394.4H269.726V404.4H279.726ZM279.726 526V536H289.726V526H279.726ZM279.726 378.48H269.726V388.48H279.726V378.48ZM332.526 361.52L341.532 365.867H341.532L332.526 361.52ZM328.686 302.96L320.925 309.266L320.974 309.326L321.024 309.386L328.686 302.96ZM279.726 292.72V282.72H269.726V292.72H279.726ZM253.566 526V266.8H233.566V526H253.566ZM243.566 276.8H295.726V256.8H243.566V276.8ZM295.726 276.8C312.192 276.8 325.071 279.049 334.772 283.076L342.44 264.604C329.528 259.244 313.82 256.8 295.726 256.8V276.8ZM334.923 283.137C344.125 286.783 350.537 292.552 354.697 300.539L372.435 291.301C365.929 278.808 355.701 269.857 342.29 264.543L334.923 283.137ZM354.816 300.761C359.264 308.801 361.886 320.178 361.886 335.6H381.886C381.886 318.169 378.962 303.092 372.317 291.079L354.816 300.761ZM361.886 335.6C361.886 344.925 360.894 353.25 359 360.636L378.373 365.604C380.746 356.35 381.886 346.328 381.886 335.6H361.886ZM359.016 360.575C357.199 367.479 354.377 373.083 350.694 377.603L366.199 390.237C371.902 383.237 375.907 374.974 378.357 365.665L359.016 360.575ZM350.812 377.461C347.436 381.451 342.868 384.545 336.724 386.593L343.049 405.567C352.264 402.495 360.07 397.482 366.08 390.379L350.812 377.461ZM330.265 398.805L367.065 528.725L386.308 523.275L349.508 393.355L330.265 398.805ZM376.686 516H341.806V536H376.686V516ZM351.439 523.313L317.519 401.713L298.254 407.087L332.174 528.687L351.439 523.313ZM307.886 394.4H279.726V414.4H307.886V394.4ZM269.726 404.4V526H289.726V404.4H269.726ZM279.726 516H243.566V536H279.726V516ZM279.726 388.48H293.486V368.48H279.726V388.48ZM293.486 388.48C304.438 388.48 314.151 387.128 322.16 383.925L314.732 365.355C309.941 367.272 303.014 368.48 293.486 368.48V388.48ZM322.16 383.925C330.87 380.441 337.455 374.311 341.532 365.867L323.521 357.173C321.624 361.102 318.823 363.719 314.732 365.355L322.16 383.925ZM341.532 365.867C345.455 357.741 347.006 347.378 347.006 335.6H327.006C327.006 346.009 325.571 352.925 323.521 357.173L341.532 365.867ZM347.006 335.6C347.006 319.703 344.186 305.879 336.348 296.534L321.024 309.386C324.28 313.268 327.006 321.204 327.006 335.6H347.006ZM336.447 296.654C327.874 286.103 312.743 282.72 295.726 282.72V302.72C311.563 302.72 318.405 306.164 320.925 309.266L336.447 296.654ZM295.726 282.72H279.726V302.72H295.726V282.72ZM269.726 292.72V378.48H289.726V292.72H269.726ZM448.224 518.96L442.31 527.024L442.411 527.098L442.513 527.169L448.224 518.96ZM427.104 488.56L417.587 491.63L417.609 491.699L417.632 491.768L427.104 488.56ZM426.464 305.84L416.89 302.953L416.875 303.002L416.86 303.052L426.464 305.84ZM447.584 275.12L441.918 266.88L441.878 266.908L441.837 266.936L447.584 275.12ZM529.184 272.88L524.263 281.586L524.375 281.649L524.488 281.709L529.184 272.88ZM550.944 297.84L541.647 301.524L541.659 301.554L541.671 301.585L550.944 297.84ZM557.664 349.68V359.68H567.664V349.68H557.664ZM523.744 349.68H513.744V359.68H523.744V349.68ZM521.504 314.16L511.709 316.177L511.715 316.206L511.721 316.235L521.504 314.16ZM512.224 298.16L505.932 305.932L506.133 306.095L506.342 306.247L512.224 298.16ZM467.424 300.08L460.353 293.009L460.274 293.087L460.197 293.168L467.424 300.08ZM458.464 320.24L448.574 318.757L448.559 318.862L448.545 318.968L458.464 320.24ZM459.424 475.76L449.628 477.769L449.652 477.889L449.68 478.009L459.424 475.76ZM513.504 493.68L520.089 501.206V501.206L513.504 493.68ZM524.064 473.84L533.831 475.984L524.064 473.84ZM526.944 423.28H536.944V413.28H526.944V423.28ZM493.984 423.28H483.984V433.28H493.984V423.28ZM493.984 397.68V387.68H483.984V397.68H493.984ZM559.584 397.68H569.584V387.68H559.584V397.68ZM559.584 526V536H569.584V526H559.584ZM536.864 526L526.933 527.175L527.977 536H536.864V526ZM533.344 496.24L543.275 495.065L523.922 492.89L533.344 496.24ZM517.344 519.92L523.833 527.528L517.344 519.92ZM487.264 519.2C472.38 519.2 461.569 516.062 453.934 510.751L442.513 527.169C454.505 535.511 469.721 539.2 487.264 539.2V519.2ZM454.137 510.896C446.466 505.27 440.513 496.979 436.575 485.352L417.632 491.768C422.654 506.594 430.782 518.57 442.31 527.024L454.137 510.896ZM436.621 485.49C432.761 473.525 430.704 458.725 430.704 440.88H410.704C410.704 460.155 412.913 477.142 417.587 491.63L436.621 485.49ZM430.704 440.88V354.16H410.704V440.88H430.704ZM430.704 354.16C430.704 335.788 432.568 320.679 436.067 308.628L416.86 303.052C412.679 317.454 410.704 334.559 410.704 354.16H430.704ZM436.038 308.727C439.543 297.104 445.398 288.873 453.33 283.304L441.837 266.936C429.716 275.447 421.491 287.696 416.89 302.953L436.038 308.727ZM453.249 283.36C461.218 277.882 473.15 274.56 490.144 274.56V254.56C470.871 254.56 454.429 258.278 441.918 266.88L453.249 283.36ZM490.144 274.56C505.342 274.56 516.467 277.179 524.263 281.586L534.104 264.174C522.274 257.488 507.372 254.56 490.144 254.56V274.56ZM524.488 281.709C532.264 285.845 537.974 292.255 541.647 301.524L560.241 294.156C554.953 280.812 546.157 270.582 533.88 264.051L524.488 281.709ZM541.671 301.585C545.512 311.096 547.664 323.792 547.664 340.08H567.664C567.664 322.234 565.335 306.771 560.216 294.095L541.671 301.585ZM547.664 340.08V349.68H567.664V340.08H547.664ZM557.664 339.68H523.744V359.68H557.664V339.68ZM533.744 349.68V341.68H513.744V349.68H533.744ZM533.744 341.68C533.744 330.023 532.982 320.079 531.286 312.085L511.721 316.235C513.012 322.321 513.744 330.724 513.744 341.68H533.744ZM531.298 312.143C529.446 303.147 525.324 295.322 518.105 290.073L506.342 306.247C508.511 307.825 510.575 310.667 511.709 316.177L531.298 312.143ZM518.516 290.388C511.379 284.61 501.423 282.72 490.784 282.72V302.72C499.771 302.72 504.109 304.457 505.932 305.932L518.516 290.388ZM490.784 282.72C478.859 282.72 467.932 285.43 460.353 293.009L474.495 307.151C476.729 304.917 481.375 302.72 490.784 302.72V282.72ZM460.197 293.168C453.734 299.925 450.077 308.736 448.574 318.757L468.353 321.723C469.41 314.677 471.727 310.048 474.65 306.992L460.197 293.168ZM448.545 318.968C447.412 327.805 446.864 337.736 446.864 348.72H466.864C466.864 338.37 467.382 329.315 468.383 321.512L448.545 318.968ZM446.864 348.72V444.72H466.864V348.72H446.864ZM446.864 444.72C446.864 457.492 447.739 468.564 449.628 477.769L469.22 473.751C467.695 466.316 466.864 456.695 466.864 444.72H446.864ZM449.68 478.009C451.952 487.855 456.395 496.316 463.777 502.16L476.191 486.48C473.333 484.217 470.736 480.305 469.168 473.511L449.68 478.009ZM463.777 502.16C471.291 508.109 481.062 510.4 491.744 510.4V490.4C483.652 490.4 478.916 488.637 476.191 486.48L463.777 502.16ZM491.744 510.4C502.632 510.4 512.556 507.797 520.089 501.206L506.919 486.154C504.212 488.523 499.629 490.4 491.744 490.4V510.4ZM520.089 501.206C527.259 494.931 531.597 486.161 533.831 475.984L514.296 471.696C512.69 479.012 509.988 483.469 506.919 486.154L520.089 501.206ZM533.831 475.984C535.958 466.295 536.944 454.641 536.944 441.2H516.944C516.944 453.786 516.009 463.892 514.296 471.696L533.831 475.984ZM536.944 441.2V423.28H516.944V441.2H536.944ZM526.944 413.28H493.984V433.28H526.944V413.28ZM503.984 423.28V397.68H483.984V423.28H503.984ZM493.984 407.68H559.584V387.68H493.984V407.68ZM549.584 397.68V526H569.584V397.68H549.584ZM559.584 516H536.864V536H559.584V516ZM546.795 524.825L543.275 495.065L523.413 497.415L526.933 527.175L546.795 524.825ZM523.922 492.89C521.054 500.956 516.682 507.341 510.854 512.312L523.833 527.528C532.512 520.126 538.807 510.724 542.766 499.59L523.922 492.89ZM510.854 512.312C505.95 516.495 498.506 519.2 487.264 519.2V539.2C501.622 539.2 514.231 535.719 523.833 527.528L510.854 512.312Z" fill="black"/>
</svg>
